# xmcd
# 
# Track frame offsets:
#     150
#     4437
#     8743
#     13033
#     17575
#     22137
#     26314
#     30384
#     34430
#     38462
#     42542
#     46992
#     51145
#     55475
#     60075
#     64705
#     69370
# 
# Disc length: 988
# 
# Revision: 0
# Processed by: cddbd v1.5.1PL0 Copyright (c) Steve Scherf et al.
# Submitted via: BonkEnc v1.0beta3
# 
DISCID=d103da11
DTITLE=Uffe Steen - Elementær Blues
DYEAR=1900
DGENRE=Blues
TTITLE0=Øvelse 01
TTITLE1=Øvelse 02
TTITLE2=Øvelse 03
TTITLE3=Øvelse 04
TTITLE4=Øvelse 05
TTITLE5=Øvelse 06
TTITLE6=Øvelse 07
TTITLE7=Øvelse 08
TTITLE8=Øvelse 09
TTITLE9=Øvelse 10
TTITLE10=Øvelse 11
TTITLE11=Øvelse 12
TTITLE12=Øvelse 13
TTITLE13=Øvelse 14
TTITLE14=Øvelse 15
TTITLE15=Øvelse 16
TTITLE16=Øvelse 17
EXTD=
EXTT0=
EXTT1=
EXTT2=
EXTT3=
EXTT4=
EXTT5=
EXTT6=
EXTT7=
EXTT8=
EXTT9=
EXTT10=
EXTT11=
EXTT12=
EXTT13=
EXTT14=
EXTT15=
EXTT16=
PLAYORDER=
